PathFileType	4	(X/Y/Z)	/Users/itak/Documents/Research/Walk-IL/dataset/trc/00559_00009.trc
DataRate	CameraRate	NumFrames	NumMarkers	Units	OrigDataRate	OrigDataStartFrame	OrigNumFrames
100.000000	100.000000	4	53	mm	100.000000	42	337
Frame#	Time	RPSI			LPSI			L3			STRN			T10			C7			CLAV			RBAK			LBAK			LSHO			LUPA			LAEL			LAOL			LWTS			LWPS			LFRA			LIFD			LHPS			LHTS			RSHO			RUPA			RAEL			RAOL			RWTS			RWPS			RFRA			RIFD			RHTS			RHPS			RBHD			LFHD			RFHD			LBHD			LHIP			RHIP			RASI			LASI			LKNE			LTHI			LANK			LTIP			LTOE			LMT1			LMT5			LHEE			RKNE			RTHI			RANK			RTIP			RTOE			RMT1			RMT5			RHEE			
		X1	Y1	Z1	X2	Y2	Z2	X3	Y3	Z3	X4	Y4	Z4	X5	Y5	Z5	X6	Y6	Z6	X7	Y7	Z7	X8	Y8	Z8	X9	Y9	Z9	X10	Y10	Z10	X11	Y11	Z11	X12	Y12	Z12	X13	Y13	Z13	X14	Y14	Z14	X15	Y15	Z15	X16	Y16	Z16	X17	Y17	Z17	X18	Y18	Z18	X19	Y19	Z19	X20	Y20	Z20	X21	Y21	Z21	X22	Y22	Z22	X23	Y23	Z23	X24	Y24	Z24	X25	Y25	Z25	X26	Y26	Z26	X27	Y27	Z27	X28	Y28	Z28	X29	Y29	Z29	X30	Y30	Z30	X31	Y31	Z31	X32	Y32	Z32	X33	Y33	Z33	X34	Y34	Z34	X35	Y35	Z35	X36	Y36	Z36	X37	Y37	Z37	X38	Y38	Z38	X39	Y39	Z39	X40	Y40	Z40	X41	Y41	Z41	X42	Y42	Z42	X43	Y43	Z43	X44	Y44	Z44	X45	Y45	Z45	X46	Y46	Z46	X47	Y47	Z47	X48	Y48	Z48	X49	Y49	Z49	X50	Y50	Z50	X51	Y51	Z51	X52	Y52	Z52	X53	Y53	Z53	

43	0.42	-1523.200561523438	1007.989013671875	-280.9635620117188	-1477.435791015625	1010.909362792969	-406.320556640625	-1496.3720703125	1104.346435546875	-344.0498046875	-1271.0751953125	1288.259887695312	-282.2759704589844	-1503.798461914062	1229.86572265625	-345.8253173828125	-1457.527099609375	1502.615112304688	-314.0542297363281	-1287.461669921875	1398.91748046875	-284.833251953125	-1550.101806640625	1378.437744140625	-251.3470306396484	-1470.16015625	1452.267211914062	-411.6312866210938	-1355.854125976562	1478.533813476562	-467.4366149902344	-1349.51953125	1354.22802734375	-551.390625	-1324.755737304688	1132.19189453125	-569.77392578125	-1422.340698242188	1124.075317382812	-545.9981079101562	-1248.744262695312	893.6804809570312	-490.9287719726562	-1267.373168945312	868.0909423828125	-572.2466430664062	-1299.645263671875	1046.031127929688	-568.7825317382812	-1244.419067382812	726.0145263671875	-492.3153686523438	-1257.46240234375	809.3577880859375	-561.8870849609375	-1222.357421875	818.4285888671875	-503.9072875976562	-1438.517211914062	1460.632934570312	-151.0221710205078	-1473.23876953125	1395.434204101562	-91.34536743164062	-1475.375610351562	1105.439819335938	-48.1120491027832	-1525.82373046875	1085.983520507812	-81.42997741699219	-1312.310180664062	906.8103637695312	-82.8140869140625	-1360.999267578125	877.1651000976562	-22.99204635620117	-1460.320434570312	1051.119262695312	-42.53910064697266	-1274.751342773438	740.5347900390625	-80.64219665527344	-1269.078247070312	823.5216674804688	-63.62208557128906	-1329.386108398438	808.5195922851562	-21.39307975769043	-1387.27001953125	1681.95556640625	-231.3421783447266	-1197.28466796875	1693.177978515625	-314.76708984375	-1255.609985351562	1690.418579101562	-182.9402008056641	-1313.742309570312	1682.705688476562	-379.7127990722656	-1315.1025390625	932.615966796875	-488.37890625	-1446.593383789062	935.7406616210938	-126.188117980957	-1344.439575195312	967.8911743164062	-153.9099731445312	-1250.547973632812	963.8258056640625	-416.897705078125	-1301.971923828125	490.6054382324219	-407.1965637207031	-1294.053100585938	655.2658081054688	-446.4133911132812	-1423.994384765625	30.17416572570801	-422.2357482910156	-1382.337036132812	245.8833618164062	-426.5147094726562	-1234.175903320312	36.59178161621094	-315.7640991210938	-1312.782104492188	36.80491256713867	-297.6008911132812	-1300.693481445312	33.31010818481445	-403.8182373046875	-1505.188354492188	27.78956031799316	-386.4951477050781	-1397.357299804688	492.3467712402344	-158.6296539306641	-1407.192260742188	782.8190307617188	-113.6811828613281	-1521.325317382812	32.88827133178711	-209.5205078125	-1404.750366210938	347.2655639648438	-173.4963531494141	-1297.328491210938	38.77693939208984	-177.1148376464844	-1344.211547851562	35.72431182861328	-236.8523559570312	-1399.677124023438	39.2409782409668	-148.9285430908203	-1553.265380859375	19.73824691772461	-280.1193237304688	
44	0.43	-1522.351196289062	1007.980224609375	-280.8484802246094	-1476.5234375	1010.980285644531	-406.1965026855469	-1495.316772460938	1104.361938476562	-343.9382019042969	-1269.756958007812	1288.0283203125	-282.0032958984375	-1502.554321289062	1229.932373046875	-345.6628723144531	-1455.933227539062	1502.603149414062	-313.8565979003906	-1286.02685546875	1398.706787109375	-284.5249328613281	-1548.671630859375	1378.514282226562	-251.1738586425781	-1468.600952148438	1452.300537109375	-411.4227294921875	-1354.203002929688	1478.433227539062	-467.1766662597656	-1347.826782226562	1354.158813476562	-551.1746215820312	-1322.892822265625	1132.109985351562	-569.4027709960938	-1420.565551757812	1123.93505859375	-545.8045654296875	-1246.572387695312	893.8927612304688	-490.0564270019531	-1264.960571289062	868.1296997070312	-571.3493041992188	-1297.679443359375	1046.02490234375	-568.2203979492188	-1241.633178710938	726.4810180664062	-491.2044067382812	-1254.880615234375	809.4689331054688	-560.8518676757812	-1219.780883789062	818.8672485351562	-502.8761901855469	-1437.019897460938	1460.576904296875	-150.8361511230469	-1471.740600585938	1395.40673828125	-91.11927795410156	-1473.480346679688	1105.401489257812	-47.78108978271484	-1523.972534179688	1085.817016601562	-80.9473876953125	-1309.780151367188	907.4757080078125	-83.148193359375	-1358.127197265625	877.5407104492188	-23.28033638000488	-1458.215454101562	1051.117309570312	-42.31726837158203	-1271.379516601562	741.416259765625	-81.31697845458984	-1266.026611328125	824.4037475585938	-64.24283599853516	-1326.170776367188	809.0457153320312	-21.856689453125	-1385.307861328125	1681.903564453125	-230.9603424072266	-1195.290771484375	1692.723388671875	-314.410400390625	-1253.6416015625	1690.033203125	-182.5579986572266	-1311.798217773438	1682.546508789062	-379.3370056152344	-1314.1435546875	932.4815673828125	-488.0831909179688	-1446.015747070312	935.60546875	-126.1123199462891	-1343.91650390625	967.6396484375	-153.6251983642578	-1249.064697265625	963.9373779296875	-416.8366394042969	-1301.155883789062	490.4223327636719	-406.783447265625	-1293.228881835938	655.1135864257812	-446.0140686035156	-1424.0947265625	30.1893424987793	-422.2400817871094	-1381.89501953125	245.8807220458984	-426.2622985839844	-1234.379760742188	36.91675567626953	-315.6203918457031	-1312.964965820312	36.9903678894043	-297.6925964355469	-1300.822387695312	33.49240112304688	-403.6634521484375	-1505.304443359375	27.5279655456543	-386.581298828125	-1396.677856445312	492.1799011230469	-158.3996887207031	-1406.650268554688	782.6397705078125	-113.6537017822266	-1521.45654296875	32.81612777709961	-209.5277709960938	-1404.13623046875	347.0091552734375	-173.3854217529297	-1297.566528320312	39.27800750732422	-177.2899627685547	-1344.408325195312	35.94127655029297	-236.9281616210938	-1399.78173828125	39.44846725463867	-149.1311492919922	-1553.4111328125	19.49596214294434	-280.1043090820312	
45	0.44	-1521.45068359375	1007.969604492188	-280.6927185058594	-1475.580444335938	1011.062194824219	-406.0471801757812	-1494.208129882812	1104.33984375	-343.8002319335938	-1268.370849609375	1287.772583007812	-281.7325134277344	-1501.245483398438	1229.972412109375	-345.4855041503906	-1454.2685546875	1502.567626953125	-313.6639709472656	-1284.52392578125	1398.472900390625	-284.2200927734375	-1547.169311523438	1378.579833984375	-251.0045013427734	-1466.967407226562	1452.312622070312	-411.2077941894531	-1352.467895507812	1478.302856445312	-466.9332580566406	-1346.06103515625	1354.070922851562	-550.9588012695312	-1320.980834960938	1132.010375976562	-569.042724609375	-1418.745483398438	1123.781127929688	-545.5989379882812	-1244.368774414062	894.0596313476562	-489.1834716796875	-1262.524169921875	868.1526489257812	-570.4491577148438	-1295.661865234375	1045.999267578125	-567.665771484375	-1238.814819335938	726.9058227539062	-490.0733337402344	-1252.24365234375	809.5528564453125	-559.8065795898438	-1217.19482421875	819.2323608398438	-501.8328247070312	-1435.457885742188	1460.510498046875	-150.6440582275391	-1470.181640625	1395.374877929688	-90.89828491210938	-1471.567016601562	1105.361083984375	-47.45000457763672	-1522.08251953125	1085.639038085938	-80.51747131347656	-1307.26806640625	908.1024780273438	-83.45150756835938	-1355.29736328125	877.8984985351562	-23.53706741333008	-1456.113891601562	1051.095581054688	-42.08245086669922	-1268.0556640625	742.2481689453125	-81.98133087158203	-1263.017822265625	825.2333374023438	-64.83444976806641	-1323.005859375	809.5381469726562	-22.30165481567383	-1383.26513671875	1681.834716796875	-230.5753936767578	-1193.21923828125	1692.22900390625	-314.06103515625	-1251.581298828125	1689.616455078125	-182.1868743896484	-1309.7822265625	1682.367309570312	-378.9619750976562	-1313.205200195312	932.33984375	-487.783935546875	-1445.357666015625	935.4522705078125	-125.9958190917969	-1343.274169921875	967.3585205078125	-153.34375	-1247.49951171875	964.0770263671875	-416.8312072753906	-1300.136108398438	490.2216796875	-406.3579406738281	-1292.316528320312	654.9549560546875	-445.6038208007812	-1424.207275390625	30.21375465393066	-422.2513732910156	-1381.419067382812	245.8405151367188	-426.0035400390625	-1234.626098632812	37.37911224365234	-315.4663696289062	-1313.2021484375	37.23436737060547	-297.7743530273438	-1301.003540039062	33.7239875793457	-403.4963989257812	-1505.448120117188	27.22772789001465	-386.685791015625	-1395.903198242188	491.9975891113281	-158.0995178222656	-1406.011596679688	782.4430541992188	-113.6299819946289	-1521.618774414062	32.73403549194336	-209.5334777832031	-1403.4609375	346.7300720214844	-173.2382354736328	-1297.82177734375	39.95878601074219	-177.5636138916016	-1344.64501953125	36.2474250793457	-237.0695953369141	-1399.907104492188	39.73517608642578	-149.3959808349609	-1553.602294921875	19.23185539245605	-280.0809326171875	
46	0.45	-1520.490356445312	1007.955383300781	-280.4964294433594	-1474.5947265625	1011.135925292969	-405.8665771484375	-1493.042358398438	1104.281005859375	-343.6274108886719	-1266.914672851562	1287.489501953125	-281.4642028808594	-1499.871948242188	1229.985473632812	-345.2922668457031	-1452.530883789062	1502.505249023438	-313.4774169921875	-1282.949584960938	1398.213745117188	-283.9261779785156	-1545.592407226562	1378.631225585938	-250.8312835693359	-1465.253540039062	1452.295166015625	-410.9920959472656	-1350.656616210938	1478.14794921875	-466.7033081054688	-1344.21484375	1353.955810546875	-550.7348022460938	-1319.02490234375	1131.889892578125	-568.6915893554688	-1416.863647460938	1123.598510742188	-545.3838500976562	-1242.120239257812	894.1946411132812	-488.3161010742188	-1260.0634765625	868.15380859375	-569.549560546875	-1293.590209960938	1045.9482421875	-567.126220703125	-1235.97900390625	727.2974243164062	-488.9109191894531	-1249.564453125	809.6097412109375	-558.7525024414062	-1214.615600585938	819.5181274414062	-500.7734069824219	-1433.825073242188	1460.431762695312	-150.4441986083984	-1468.55615234375	1395.334838867188	-90.68175506591797	-1469.631958007812	1105.317504882812	-47.13427352905273	-1520.165161132812	1085.458251953125	-80.12800598144531	-1304.773681640625	908.682861328125	-83.73307037353516	-1352.515625	878.2315063476562	-23.76445960998535	-1454.017211914062	1051.056762695312	-41.83564758300781	-1264.793334960938	743.0211181640625	-82.63388061523438	-1260.066650390625	826.002685546875	-65.38910675048828	-1319.900146484375	809.9923706054688	-22.7282543182373	-1381.138061523438	1681.741577148438	-230.1925659179688	-1191.072143554688	1691.690673828125	-313.7182922363281	-1249.426391601562	1689.166381835938	-181.8275299072266	-1307.693359375	1682.160888671875	-378.5877380371094	-1312.2734375	932.1707153320312	-487.467041015625	-1444.6083984375	935.2868041992188	-125.8218765258789	-1342.501708984375	967.0541381835938	-153.0802612304688	-1245.818969726562	964.2376098632812	-416.8981018066406	-1298.89404296875	489.9925231933594	-405.9293823242188	-1291.3046875	654.78759765625	-445.1970520019531	-1424.327758789062	30.24615859985352	-422.2705993652344	-1380.9130859375	245.7558746337891	-425.7470397949219	-1234.90966796875	37.99299621582031	-315.310791015625	-1313.487915039062	37.53836822509766	-297.8379516601562	-1301.236572265625	34.00844192504883	-403.3273010253906	-1505.6123046875	26.91110420227051	-386.7933349609375	-1395.0361328125	491.8000183105469	-157.7499237060547	-1405.271728515625	782.2365112304688	-113.5854110717773	-1521.803833007812	32.64561080932617	-209.5391235351562	-1402.743041992188	346.4376831054688	-173.0503997802734	-1298.088134765625	40.83483123779297	-177.9376068115234	-1344.915405273438	36.65894317626953	-237.2890167236328	-1400.050170898438	40.10426712036133	-149.7192077636719	-1553.83837890625	18.96392250061035	-280.0460815429688	
